<?xml version="1.0" encoding="utf-8"?>
<!-- Generator: Adobe Illustrator 16.0.0, SVG Export Plug-In . SVG Version: 6.00 Build 0)  -->
<!DOCTYPE svg PUBLIC "-//W3C//DTD SVG 1.1//EN" "http://www.w3.org/Graphics/SVG/1.1/DTD/svg11.dtd">
<svg version="1.1" id="Layer_1" xmlns="http://www.w3.org/2000/svg" xmlns:xlink="http://www.w3.org/1999/xlink" x="0px" y="0px"
	 width="195.106px" height="68.778px" viewBox="0 0 195.106 68.778" enable-background="new 0 0 195.106 68.778"
	 xml:space="preserve">
<g>
	<polygon fill="#D0DB50" points="23.111,-0.055 11.556,11.417 0,22.889 0,45.834 0,69 23,69 23,45.834 34.528,34.361 46.028,22.889 
		34.57,11.417 	"/>
	<polygon fill="#D0DB50" points="69,23 91.945,23 80.473,11.473 69,-0.027 57.5,11.431 46,22.889 46,45.834 57.5,57.306 
		68.986,68.778 80.466,57.389 91.945,46 69,46 	"/>
	<polygon fill="#D0DB50" points="115,23 137.834,23 126.361,11.473 114.89,-0.027 103.444,11.431 92,22.889 92,45.834 
		103.444,57.306 114.903,68.778 126.369,57.389 137.834,46 115,46 	"/>
</g>
<path fill="#D0DB50" d="M183.776,14.079c-6.258,0-11.33,5.073-11.33,11.33c0-6.257-5.071-11.33-11.329-11.33
	c-6.257,0-11.33,5.073-11.33,11.33c0,8.309,22.659,29.458,22.659,29.458s22.66-21.149,22.66-29.458
	C195.106,19.151,190.034,14.079,183.776,14.079z"/>
</svg>
